{
  "asset": {
    "generator": "Khronos glTF Blender I/O v1.5.17",
    "version": "2.0"
  },
  "scene": 0,
  "scenes": [
    {
      "name": "Scene",
      "nodes": [
        0
      ]
    }
  ],
  "nodes": [
    {
      "mesh": 0,
      "name": "sphere_gltf"
    }
  ],
  "materials": [
    {
      "doubleSided": true,
      "name": "concrete_floor_painted",
      "normalTexture": {
        "index": 0
      },
      "pbrMetallicRoughness": {
        "baseColorTexture": {
          "index": 1
        },
        "metallicFactor": 0,
        "metallicRoughnessTexture": {
          "index": 2
        }
      }
    }
  ],
  "meshes": [
    {
      "name": "Sphere.001",
      "primitives": [
        {
          "attributes": {
            "POSITION": 0,
            "NORMAL": 1,
            "TEXCOORD_0": 2
          },
          "indices": 3,
          "material": 0
        }
      ]
    }
  ],
  "textures": [
    {
      "sampler": 0,
      "source": 0
    },
    {
      "sampler": 0,
      "source": 1
    },
    {
      "sampler": 0,
      "source": 2
    }
  ],
  "images": [
    {
      "mimeType": "image/jpeg",
      "name": "concrete_floor_painted_nor_gl_4k",
      "uri": "textures/concrete_floor_painted_nor_gl_2k.jpg"
    },
    {
      "mimeType": "image/jpeg",
      "name": "concrete_floor_painted_diff_4k",
      "uri": "textures/concrete_floor_painted_diff_2k.jpg"
    },
    {
      "mimeType": "image/jpeg",
      "name": "concrete_floor_painted_rough_4k",
      "uri": "textures/concrete_floor_painted_rough_2k.jpg"
    }
  ],
  "accessors": [
    {
      "bufferView": 0,
      "componentType": 5126,
      "count": 53936,
      "max": [
        0.9996203184127808,
        1.0064889192581177,
        0.9966952204704285
      ],
      "min": [
        -0.9996201992034912,
        -1.0065871477127075,
        -0.9966901540756226
      ],
      "type": "VEC3"
    },
    {
      "bufferView": 1,
      "componentType": 5126,
      "count": 53936,
      "type": "VEC3"
    },
    {
      "bufferView": 2,
      "componentType": 5126,
      "count": 53936,
      "type": "VEC2"
    },
    {
      "bufferView": 3,
      "componentType": 5123,
      "count": 322170,
      "type": "SCALAR"
    }
  ],
  "bufferViews": [
    {
      "buffer": 0,
      "byteLength": 647232,
      "byteOffset": 0
    },
    {
      "buffer": 0,
      "byteLength": 647232,
      "byteOffset": 647232
    },
    {
      "buffer": 0,
      "byteLength": 431488,
      "byteOffset": 1294464
    },
    {
      "buffer": 0,
      "byteLength": 644340,
      "byteOffset": 1725952
    }
  ],
  "samplers": [
    {
      "magFilter": 9729,
      "minFilter": 9987
    }
  ],
  "buffers": [
    {
      "byteLength": 2370292,
      "uri": "concrete_floor_painted.bin"
    }
  ]
}